# xmcd
#
# Track frame offsets:
#   150
#   18620
#   34776
#   55242
#   68867
#   90037
#   108636
#   122347
#   140729
#   158617
#   176981
#   194025
#   211674
#   228759
#
# Disc length: 3252 seconds
#
# Revision: 0
# Processed by: cddbd v1.5.2PL0 Copyright (c) Steve Scherf et al.
# Submitted via: uFREEDB ActiveX Control 1.5
#
DISCID=bb0cb20e
DTITLE=favorita  - favorita internacional
DYEAR=2009
DGENRE=Alternative
TTITLE0=fav inter1
TTITLE1=fav inter2
TTITLE2=fav inter 3
TTITLE3=fav inter 4
TTITLE4=fav inter 5
TTITLE5=favo inter 6
TTITLE6=fav inter7
TTITLE7=fav inter8
TTITLE8=fav inter 9
TTITLE9=fav inter 10
TTITLE10=fav inter 11
TTITLE11=fav inter 12
TTITLE12=fav inter13
TTITLE13=fav inter 14
EXTD=
EXTT0=
EXTT1=
EXTT2=
EXTT3=
EXTT4=
EXTT5=
EXTT6=
EXTT7=
EXTT8=
EXTT9=
EXTT10=
EXTT11=
EXTT12=
EXTT13=
PLAYORDER=
